<?xml version="1.0" encoding="UTF-8" standalone="no"?>
<!DOCTYPE svg PUBLIC "-//W3C//DTD SVG 1.1//EN" "http://www.w3.org/Graphics/SVG/1.1/DTD/svg11.dtd">
<svg version="1.1" xmlns="http://www.w3.org/2000/svg" xmlns:xlink="http://www.w3.org/1999/xlink" preserveAspectRatio="xMidYMid meet" viewBox="176.83411447469487 116.75085799387938 252.3863296675506 263.8449393731873" width="100" height="104.54"><defs><path d="" id="b3Mhh3yHEk"></path><path d="M192.73 123.3L370.37 123.3L370.37 327.94L192.73 327.94L192.73 123.3Z" id="d25ewyOXRU"></path><path d="M214.28 116.75L391.02 134.12L369.92 337.72L193.18 320.35L214.28 116.75Z" id="aXqqWGuZ9"></path><path d="M249.07 126.24L429.22 175.21L370.32 380.6L190.17 331.62L249.07 126.24Z" id="a1QplhPSI"></path><path d="M247.48 122.13L292.1 135.22L281.62 170.97L237 157.89L247.48 122.13Z" id="a3gBrEp8i"></path><path d="M291.34 136.13L238.57 158.81L280.33 171.72L291.34 136.13Z" id="b7g4jX8l7"></path><path d="M242.79 224.52L304.11 242.1L304.61 240.38L243.29 222.81L242.79 224.52Z" id="d1JTsWx3wV"></path><path d="M240.17 233.73L301.49 251.3L301.99 249.58L240.67 232.01L240.17 233.73Z" id="aSVtGqwVr"></path><path d="M237.74 242.3L299.05 259.87L299.56 258.15L238.24 240.58L237.74 242.3Z" id="b1pSxFe6Z"></path><path d="M235.49 250.21L296.81 267.78L297.31 266.07L235.99 248.49L235.49 250.21Z" id="h1hJ9Wxtm"></path><path d="M233.05 258.8L294.37 276.37L294.87 274.65L233.55 257.08L233.05 258.8Z" id="ac8ekZHFe"></path><path d="M230.43 268L291.75 285.58L292.25 283.86L230.93 266.29L230.43 268Z" id="b4hjqO916m"></path><path d="M228.13 276.12L289.44 293.69L289.95 291.97L228.63 274.4L228.13 276.12Z" id="b3slvaJAZB"></path><path d="M225.5 285.35L286.82 302.92L287.33 301.2L226.01 283.63L225.5 285.35Z" id="a1QfaGzvuy"></path><path d="M223.16 293.6L284.48 311.17L284.98 309.45L223.66 291.88L223.16 293.6Z" id="d7SB7Pk3p"></path><path d="M220.59 302.65L281.91 320.22L282.41 318.5L221.09 300.93L220.59 302.65Z" id="j1N9bFAI1o"></path><path d="M218.02 311.7L279.33 329.27L279.84 327.55L218.52 309.98L218.02 311.7Z" id="beq9j3RMA"></path><path d="M215.67 319.95L276.99 337.52L277.49 335.8L216.18 318.23L215.67 319.95Z" id="c6Eup3wECs"></path><path d="M319.22 245.88L380.54 263.45L381.04 261.74L319.72 244.16L319.22 245.88Z" id="b8JWbqgdJ"></path><path d="M316.6 255.09L377.92 272.66L378.42 270.94L317.1 253.37L316.6 255.09Z" id="a1Dy06Lzsw"></path><path d="M314.17 263.66L375.49 281.23L375.99 279.51L314.67 261.94L314.17 263.66Z" id="c3EfrjFutQ"></path><path d="M311.92 271.57L373.24 289.14L373.74 287.42L312.42 269.85L311.92 271.57Z" id="b1Nenu8Exj"></path><path d="M309.48 280.16L370.8 297.73L371.3 296.01L309.98 278.44L309.48 280.16Z" id="ewxN4S18R"></path><path d="M306.86 289.36L368.18 306.94L368.68 305.22L307.37 287.64L306.86 289.36Z" id="dqtZZoCOE"></path><path d="M304.56 297.48L365.88 315.05L366.38 313.33L305.06 295.76L304.56 297.48Z" id="a4rFK2qzFP"></path><path d="M301.93 306.71L363.25 324.28L363.76 322.56L302.44 304.99L301.93 306.71Z" id="b2nRAh52iq"></path><path d="M299.59 314.96L360.91 332.53L361.41 330.81L300.09 313.24L299.59 314.96Z" id="bpEAXcP5"></path><path d="M297.02 324.01L358.34 341.58L358.84 339.86L297.52 322.29L297.02 324.01Z" id="bT5sbUsG"></path><path d="M294.45 333.06L355.77 350.63L356.27 348.91L294.95 331.34L294.45 333.06Z" id="b1gp4RxBQd"></path><path d="M292.1 341.31L353.42 358.88L353.93 357.16L292.61 339.59L292.1 341.31Z" id="c2Y7xNWwD0"></path><path d="M344.66 213.52C344.66 213.53 344.65 213.57 344.63 213.65C342.55 213.09 341.39 212.78 341.16 212.72C341.38 211.57 341.49 210.37 341.49 209.15C341.49 207.94 341.38 206.74 341.16 205.59C341.39 205.52 342.55 205.21 344.63 204.66C344.65 204.74 344.66 204.78 344.66 204.79C344.88 205.61 345.72 206.05 346.49 205.85C347.29 205.63 347.77 204.81 347.55 204.01C347.47 203.7 346.79 201.18 346.71 200.86C346.49 200.06 345.67 199.59 344.88 199.81C344.08 200.02 343.6 200.84 343.82 201.64C343.82 201.65 343.83 201.69 343.85 201.77C341.77 202.32 340.62 202.63 340.39 202.7C339.58 200.41 338.36 198.32 336.81 196.52C336.98 196.35 337.83 195.5 339.36 193.98C339.41 194.04 339.44 194.07 339.45 194.07C340.03 194.66 340.98 194.66 341.57 194.07C342.15 193.49 342.15 192.54 341.57 191.96C341.34 191.73 339.49 189.88 339.26 189.65C338.68 189.07 337.73 189.07 337.14 189.65C336.56 190.24 336.56 191.18 337.14 191.77C337.15 191.77 337.18 191.81 337.24 191.86C335.71 193.39 334.87 194.24 334.7 194.41C332.89 192.86 330.81 191.64 328.52 190.83C328.58 190.6 328.89 189.44 329.45 187.37C329.53 187.39 329.57 187.4 329.58 187.4C330.41 187.62 331.21 187.11 331.41 186.34C331.63 185.54 331.15 184.72 330.35 184.51C330.04 184.43 327.52 183.75 327.21 183.67C326.41 183.45 325.59 183.93 325.37 184.72C325.16 185.52 325.63 186.34 326.43 186.56C326.44 186.56 326.48 186.57 326.56 186.59C326 188.67 325.69 189.82 325.63 190.05C324.47 189.84 323.28 189.72 322.06 189.72C320.84 189.72 319.65 189.84 318.5 190.05C318.43 189.82 318.12 188.67 317.57 186.59C317.64 186.57 317.69 186.56 317.7 186.56C318.49 186.34 318.97 185.52 318.75 184.72C318.54 183.93 317.72 183.45 316.92 183.67C316.61 183.75 314.09 184.43 313.77 184.51C312.97 184.72 312.5 185.54 312.71 186.34C312.92 187.11 313.72 187.62 314.55 187.4C314.56 187.4 314.6 187.39 314.68 187.37C315.23 189.44 315.54 190.6 315.6 190.83C313.32 191.64 311.23 192.86 309.43 194.4C309.26 194.24 308.41 193.39 306.89 191.86C306.94 191.81 306.98 191.77 306.98 191.77C307.57 191.18 307.57 190.24 306.98 189.65C306.4 189.07 305.45 189.07 304.87 189.65C304.64 189.88 302.79 191.73 302.56 191.96C301.98 192.54 301.98 193.49 302.56 194.07C303.15 194.66 304.09 194.66 304.68 194.07C304.68 194.07 304.71 194.04 304.77 193.98C306.3 195.5 307.14 196.35 307.31 196.52C305.77 198.32 304.55 200.41 303.74 202.7C303.51 202.63 302.35 202.32 300.28 201.77C300.3 201.69 300.31 201.65 300.31 201.64C300.52 200.84 300.05 200.02 299.25 199.8C298.45 199.59 297.63 200.06 297.42 200.86C297.33 201.18 296.66 203.7 296.57 204.01C296.36 204.81 296.83 205.63 297.63 205.85C298.4 206.05 299.24 205.61 299.47 204.79C299.47 204.78 299.48 204.74 299.5 204.66C301.58 205.21 302.73 205.52 302.96 205.59C302.75 206.74 302.63 207.94 302.63 209.15C302.63 210.37 302.75 211.57 302.96 212.72C302.73 212.78 301.58 213.09 299.5 213.65C299.48 213.57 299.47 213.53 299.47 213.52C299.24 212.7 298.4 212.26 297.63 212.46C296.83 212.68 296.36 213.5 296.57 214.3C296.66 214.61 297.33 217.13 297.42 217.45C297.63 218.24 298.45 218.72 299.25 218.5C300.05 218.29 300.52 217.47 300.31 216.67C300.31 216.66 300.3 216.62 300.27 216.54C302.35 215.98 303.51 215.68 303.74 215.61C304.55 217.9 305.77 219.99 307.31 221.79C307.14 221.96 306.3 222.8 304.77 224.33C304.71 224.27 304.68 224.24 304.68 224.24C304.09 223.65 303.14 223.65 302.56 224.24C301.98 224.82 301.98 225.77 302.56 226.35C302.79 226.58 304.64 228.43 304.87 228.66C305.45 229.24 306.4 229.24 306.98 228.66C307.57 228.07 307.57 227.13 306.98 226.54C306.98 226.53 306.94 226.5 306.89 226.45C308.41 224.92 309.26 224.07 309.43 223.9C311.23 225.45 313.32 226.67 315.6 227.48C315.54 227.71 315.23 228.86 314.68 230.94C314.6 230.92 314.56 230.91 314.55 230.91C313.72 230.69 312.92 231.2 312.71 231.97C312.5 232.76 312.97 233.59 313.77 233.8C314.09 233.88 316.61 234.56 316.92 234.64C317.72 234.86 318.54 234.38 318.75 233.58C318.97 232.79 318.49 231.97 317.7 231.75C317.69 231.75 317.64 231.74 317.57 231.72C318.12 229.64 318.43 228.49 318.49 228.25C319.65 228.47 320.84 228.58 322.06 228.58C323.28 228.58 324.47 228.47 325.63 228.25C325.69 228.49 326 229.64 326.56 231.72C326.48 231.74 326.44 231.75 326.43 231.75C325.63 231.97 325.16 232.79 325.37 233.58C325.59 234.38 326.41 234.86 327.2 234.64C327.52 234.56 330.04 233.88 330.35 233.8C331.15 233.59 331.63 232.76 331.41 231.97C331.21 231.2 330.41 230.69 329.58 230.91C329.57 230.91 329.53 230.92 329.45 230.94C328.89 228.86 328.58 227.71 328.52 227.48C330.81 226.67 332.89 225.45 334.7 223.9C334.87 224.07 335.71 224.92 337.24 226.45C337.18 226.5 337.15 226.53 337.14 226.54C336.56 227.13 336.56 228.07 337.14 228.66C337.73 229.24 338.68 229.24 339.26 228.66C339.49 228.43 341.34 226.58 341.57 226.35C342.15 225.77 342.15 224.82 341.57 224.24C340.98 223.65 340.03 223.65 339.45 224.24C339.44 224.24 339.41 224.27 339.36 224.33C337.83 222.8 336.98 221.96 336.81 221.79C338.36 219.99 339.58 217.9 340.39 215.61C340.62 215.68 341.77 215.98 343.85 216.54C343.83 216.62 343.82 216.66 343.82 216.67C343.6 217.47 344.08 218.29 344.88 218.5C345.67 218.72 346.49 218.24 346.71 217.45C346.79 217.13 347.47 214.61 347.55 214.3C347.77 213.5 347.29 212.68 346.49 212.46C345.72 212.26 344.88 212.7 344.66 213.52ZM305.63 209.15C305.63 200.09 313 192.72 322.06 192.72C331.13 192.72 338.5 200.09 338.5 209.15C338.5 218.22 331.13 225.59 322.06 225.59C313 225.59 305.63 218.22 305.63 209.15Z" id="a1ezyfRezk"></path><path d="M183.45 337.97L287.4 251.81L287.2 243.22L280.79 238.1L179.09 329.37L183.45 337.97Z" id="h3Bd7cc6y"></path><path d="M265.5 248.02L274.55 242.62L267.18 232.49L257.68 230.58L251.59 232.51L254.19 241.64L265.5 248.02Z" id="cLWMNo9Q3"></path><path d="M278.5 281.29L266.38 288.57L252.43 286.86L241.57 276.39L237.2 275.19L229.78 277.66L231.41 282.84L219.09 293.53L217.44 290.13L216.25 285.07L223.01 270.23L236.93 264.4L249.24 271.15L259.46 278.89L270.73 273.81L275.54 264.31L283.24 257.3L283.41 268.89L278.5 281.29Z" id="a18L2sIYJt"></path><path d="M221.73 321.03L208.79 322.1L201.93 313.38L196.94 313.38L186.01 323.6L182.87 321.48L185.17 312.86L195.84 303.31L204.27 305.41L215.78 312.86L218.93 308.71L231.49 299.45L230.66 310.99L221.73 321.03Z" id="b3PwRmLBc"></path><path d="M276.48 285.74C284.25 279.03 287.71 267.75 285.38 257.21C285.58 257.04 287.17 255.74 287.36 255.57C287.43 255.52 287.49 255.47 287.55 255.42C291.75 251.79 292.58 245.01 289.42 240.31C286.25 235.6 280.26 234.73 276.06 238.36C276 238.41 275.94 238.47 275.88 238.52C275.85 238.54 275.72 238.66 275.48 238.87C273.09 235.32 271.76 233.35 271.5 232.95C270.01 230.74 267.83 229.29 265.39 228.88C264.46 228.72 257.03 227.47 256.11 227.32C254.05 226.97 252 227.72 250.49 229.38C248.23 231.84 247.81 235.77 249.48 238.74C249.58 238.91 249.69 239.08 249.8 239.25C250.01 239.56 250.25 239.87 250.5 240.13C251.19 240.87 256.62 246.67 257.29 247.4C258.86 249.07 260.86 250.03 262.94 250.25C261.29 251.75 248.08 263.72 246.43 265.22C239.31 260.86 230.22 261.35 223.31 267.32C219.6 270.52 216.96 274.9 215.68 279.96C214.6 284.26 214.59 288.87 215.66 293.14C214.6 294.09 206.18 301.72 205.13 302.68C199.56 299.55 192.62 300.06 187.31 304.65C181.88 309.35 179.48 317.14 181.09 324.49C180.91 324.65 179.49 325.93 179.32 326.09C176.54 328.62 176.01 333.27 178.15 336.44C180.29 339.62 184.39 340.28 187.27 337.91C189.13 336.38 204.01 324.14 205.86 322.61C212.05 326.57 220.04 326.2 226.09 320.98C231.71 316.12 234.38 307.98 233.02 300.27C236.18 297.67 247.25 288.56 248.83 287.27C257.12 293.15 268.18 292.92 276.48 285.74ZM253.55 236.51C253.42 236.37 253.3 236.21 253.2 236.03C252.66 235.06 252.8 233.74 253.53 232.93C254.04 232.37 254.73 232.12 255.41 232.24C256.34 232.39 263.77 233.64 264.69 233.79C266.01 234.01 267.18 234.8 267.99 235.99C268.25 236.39 269.6 238.39 272.03 242C269.95 243.89 268.79 244.95 268.56 245.16C267.92 244.48 266.94 244.28 266.09 244.74C264.18 245.8 261.87 245.41 260.34 243.77C259.66 243.04 254.23 237.23 253.55 236.51ZM261.91 276.52C262.6 275.94 266.07 273.09 272.31 267.96C270.98 270.91 269.72 272.9 268.52 273.93C266.54 275.64 264.21 276.49 261.91 276.52ZM284.8 251.56C284.48 251.83 281.92 253.93 281.6 254.2C281.58 254.2 281.57 254.22 281.56 254.23C279.04 256.3 258.92 272.85 256.4 274.92C255.15 274.12 254.03 273.04 253.11 271.68C252.23 270.37 251.25 269.2 250.19 268.15C253.04 265.58 275.77 244.96 278.61 242.38C278.64 242.35 278.68 242.32 278.71 242.29C280.97 240.34 284.2 240.81 285.91 243.34C287.61 245.87 287.16 249.53 284.89 251.48C284.86 251.51 284.83 251.54 284.8 251.56ZM230.71 279.48C229.59 280.5 220.61 288.64 219.49 289.66C218.5 282.8 220.94 275.6 225.96 271.26C233.39 264.84 243.99 266.39 249.6 274.72C254.71 282.32 264.39 283.73 271.17 277.87C275.06 274.51 277.3 269.33 277.29 263.86C277.71 263.51 281.05 260.77 281.46 260.42C282.57 268.46 279.71 276.73 273.82 281.81C265.11 289.34 252.66 287.52 246.08 277.75C241.94 271.6 234.1 270.45 228.61 275.2C227.64 276.03 227.45 277.6 228.18 278.68C228.79 279.57 229.82 279.87 230.71 279.48ZM210.95 308.11C210.32 307.19 209.64 306.36 208.91 305.6C211.95 302.84 236.33 280.74 239.37 277.97C240.6 278.56 241.71 279.51 242.57 280.79C243.39 282 244.27 283.1 245.23 284.11C238.9 289.32 216.75 307.53 213.59 310.14C212.57 309.81 211.63 309.13 210.95 308.11ZM182.06 329.96C183.63 328.53 196.28 317.06 197.85 315.63C198.83 315.73 199.76 316.27 200.4 317.21C200.96 318.04 201.56 318.8 202.2 319.5C201.03 320.47 195.2 325.26 184.7 333.9C183.15 334.28 182.14 334.11 181.66 333.41C180.95 332.35 181.13 330.8 182.06 329.96ZM191.76 314.82C191.08 315.42 185.71 320.3 185.04 320.91C184.73 316.22 186.52 311.57 189.96 308.59C195.45 303.85 203.29 304.99 207.43 311.14C210.6 315.85 216.59 316.73 220.79 313.1C221.69 312.32 221.92 310.93 221.36 309.86C222.13 309.23 228.2 304.24 228.95 303.62C229.17 308.74 227.15 313.83 223.44 317.04C217.3 322.34 208.54 321.06 203.92 314.18C201.24 310.2 196.17 309.46 192.62 312.53C191.97 313.09 191.67 313.97 191.76 314.82Z" id="bff1bPJH"></path><path d="M276.48 285.74C284.25 279.03 287.71 267.75 285.38 257.21C285.58 257.04 287.17 255.74 287.36 255.57C287.43 255.52 287.49 255.47 287.55 255.42C291.75 251.79 292.58 245.01 289.42 240.31C286.25 235.6 280.26 234.73 276.06 238.36C276 238.41 275.94 238.47 275.88 238.52C275.85 238.54 275.72 238.66 275.48 238.87C273.09 235.32 271.76 233.35 271.5 232.95C270.01 230.74 267.83 229.29 265.39 228.88C264.46 228.72 257.03 227.47 256.11 227.32C254.05 226.97 252 227.72 250.49 229.38C248.23 231.84 247.81 235.77 249.48 238.74C249.58 238.91 249.69 239.08 249.8 239.25C250.01 239.56 250.25 239.87 250.5 240.13C251.19 240.87 256.62 246.67 257.29 247.4C258.86 249.07 260.86 250.03 262.94 250.25C261.29 251.75 248.08 263.72 246.43 265.22C239.31 260.86 230.22 261.35 223.31 267.32C219.6 270.52 216.96 274.9 215.68 279.96C214.6 284.26 214.59 288.87 215.66 293.14C214.6 294.09 206.18 301.72 205.13 302.68C199.56 299.55 192.62 300.06 187.31 304.65C181.88 309.35 179.48 317.14 181.09 324.49C180.91 324.65 179.49 325.93 179.32 326.09C176.54 328.62 176.01 333.27 178.15 336.44C180.29 339.62 184.39 340.28 187.27 337.91C189.13 336.38 204.01 324.14 205.86 322.61C212.05 326.57 220.04 326.2 226.09 320.98C231.71 316.12 234.38 307.98 233.02 300.27C236.18 297.67 247.25 288.56 248.83 287.27C257.12 293.15 268.18 292.92 276.48 285.74ZM253.55 236.51C253.42 236.37 253.3 236.21 253.2 236.03C252.66 235.06 252.8 233.74 253.53 232.93C254.04 232.37 254.73 232.12 255.41 232.24C256.34 232.39 263.77 233.64 264.69 233.79C266.01 234.01 267.18 234.8 267.99 235.99C268.25 236.39 269.6 238.39 272.03 242C269.95 243.89 268.79 244.95 268.56 245.16C267.92 244.48 266.94 244.28 266.09 244.74C264.18 245.8 261.87 245.41 260.34 243.77C259.66 243.04 254.23 237.23 253.55 236.51ZM261.91 276.52C262.6 275.94 266.07 273.09 272.31 267.96C270.98 270.91 269.72 272.9 268.52 273.93C266.54 275.64 264.21 276.49 261.91 276.52ZM284.8 251.56C284.48 251.83 281.92 253.93 281.6 254.2C281.58 254.2 281.57 254.22 281.56 254.23C279.04 256.3 258.92 272.85 256.4 274.92C255.15 274.12 254.03 273.04 253.11 271.68C252.23 270.37 251.25 269.2 250.19 268.15C253.04 265.58 275.77 244.96 278.61 242.38C278.64 242.35 278.68 242.32 278.71 242.29C280.97 240.34 284.2 240.81 285.91 243.34C287.61 245.87 287.16 249.53 284.89 251.48C284.86 251.51 284.83 251.54 284.8 251.56ZM230.71 279.48C229.59 280.5 220.61 288.64 219.49 289.66C218.5 282.8 220.94 275.6 225.96 271.26C233.39 264.84 243.99 266.39 249.6 274.72C254.71 282.32 264.39 283.73 271.17 277.87C275.06 274.51 277.3 269.33 277.29 263.86C277.71 263.51 281.05 260.77 281.46 260.42C282.57 268.46 279.71 276.73 273.82 281.81C265.11 289.34 252.66 287.52 246.08 277.75C241.94 271.6 234.1 270.45 228.61 275.2C227.64 276.03 227.45 277.6 228.18 278.68C228.79 279.57 229.82 279.87 230.71 279.48ZM210.95 308.11C210.32 307.19 209.64 306.36 208.91 305.6C211.95 302.84 236.33 280.74 239.37 277.97C240.6 278.56 241.71 279.51 242.57 280.79C243.39 282 244.27 283.1 245.23 284.11C238.9 289.32 216.75 307.53 213.59 310.14C212.57 309.81 211.63 309.13 210.95 308.11ZM182.06 329.96C183.63 328.53 196.28 317.06 197.85 315.63C198.83 315.73 199.76 316.27 200.4 317.21C200.96 318.04 201.56 318.8 202.2 319.5C201.03 320.47 195.2 325.26 184.7 333.9C183.15 334.28 182.14 334.11 181.66 333.41C180.95 332.35 181.13 330.8 182.06 329.96ZM191.76 314.82C191.08 315.42 185.71 320.3 185.04 320.91C184.73 316.22 186.52 311.57 189.96 308.59C195.45 303.85 203.29 304.99 207.43 311.14C210.6 315.85 216.59 316.73 220.79 313.1C221.69 312.32 221.92 310.93 221.36 309.86C222.13 309.23 228.2 304.24 228.95 303.62C229.17 308.74 227.15 313.83 223.44 317.04C217.3 322.34 208.54 321.06 203.92 314.18C201.24 310.2 196.17 309.46 192.62 312.53C191.97 313.09 191.67 313.97 191.76 314.82Z" id="b3aWHDSJmV"></path><path d="M327.76 171.3C330.28 167.48 335.99 171.31 333.46 175.15C330.93 178.99 325.24 175.14 327.76 171.3Z" id="b1dOQv4Ep0"></path><linearGradient id="gradientg11lZWHv4f" gradientUnits="userSpaceOnUse" x1="333.46" y1="175.15" x2="327.76" y2="171.3"><stop style="stop-color: #000000;stop-opacity: 0.12" offset="0%"></stop><stop style="stop-color: #000000;stop-opacity: 0.09" offset="55.00000000000001%"></stop><stop style="stop-color: #000000;stop-opacity: 0.02" offset="100%"></stop></linearGradient><path d="M327.76 171.3C330.28 167.48 335.99 171.31 333.46 175.15C330.93 178.99 325.24 175.14 327.76 171.3Z" id="a1wW9xn9pn"></path><path d="M323.56 173.86C326.08 170.03 331.78 173.87 329.26 177.71C326.74 181.54 321.03 177.7 323.56 173.86Z" id="brD8MqU8K"></path><path d="M323.56 173.86C326.08 170.03 331.78 173.87 329.26 177.71C326.74 181.54 321.03 177.7 323.56 173.86Z" id="a1JZHbq6yn"></path><path d="M319.52 175.33C310.62 175.28 301.5 180.47 296.14 189.09C290.5 198.13 290.05 209.51 294 218.35C295.49 221.71 290.36 224.4 288.87 221.06C284.07 210.32 285.15 196.48 291.93 185.68C298.49 175.23 309.62 169.18 320.39 169.25C323.9 169.27 323.01 175.34 319.52 175.33Z" id="d4iEgI3kHd"></path><linearGradient id="gradientd2zqLDwAjW" gradientUnits="userSpaceOnUse" x1="308.94" y1="198.07" x2="291.5" y2="186.32"><stop style="stop-color: #000000;stop-opacity: 0.12" offset="0%"></stop><stop style="stop-color: #000000;stop-opacity: 0.09" offset="55.00000000000001%"></stop><stop style="stop-color: #000000;stop-opacity: 0.02" offset="100%"></stop></linearGradient><path d="M319.52 175.33C310.62 175.28 301.5 180.47 296.14 189.09C290.5 198.13 290.05 209.51 294 218.35C295.49 221.71 290.36 224.4 288.87 221.06C284.07 210.32 285.15 196.48 291.93 185.68C298.49 175.23 309.62 169.18 320.39 169.25C323.9 169.27 323.01 175.34 319.52 175.33Z" id="a3bV6ZG2xZ"></path><path d="M315.33 177.89C306.42 177.84 297.31 183.03 291.95 191.66C286.31 200.7 285.86 212.07 289.8 220.92C291.3 224.27 286.17 226.96 284.67 223.62C279.88 212.88 280.96 199.05 287.74 188.25C294.29 177.79 305.42 171.75 316.2 171.82C319.71 171.83 318.82 177.91 315.33 177.89Z" id="a1ZHF7zay"></path><path d="M315.33 177.89C306.42 177.84 297.31 183.03 291.95 191.66C286.31 200.7 285.86 212.07 289.8 220.92C291.3 224.27 286.17 226.96 284.67 223.62C279.88 212.88 280.96 199.05 287.74 188.25C294.29 177.79 305.42 171.75 316.2 171.82C319.71 171.83 318.82 177.91 315.33 177.89Z" id="c5bAJyLHlz"></path><path d="M348.04 244.67C328.44 261.81 299.37 259.82 283.18 240.21C266.99 220.61 269.76 190.78 289.37 173.63C308.98 156.49 338.04 158.49 354.23 178.09C370.42 197.7 367.65 227.53 348.04 244.67Z" id="b2zFWeZzgr"></path></defs><g><g><g><g><use xlink:href="#b3Mhh3yHEk" opacity="1" fill-opacity="0" stroke="#000000" stroke-width="1" stroke-opacity="1"></use></g></g><g><use xlink:href="#d25ewyOXRU" opacity="1" fill="#ffffff" fill-opacity="0.99"></use><g><use xlink:href="#d25ewyOXRU" opacity="1" fill-opacity="0" stroke="#0a7aa3" stroke-width="1" stroke-opacity="1"></use></g></g><g><use xlink:href="#aXqqWGuZ9" opacity="1" fill="#ffffff" fill-opacity="1"></use><g><use xlink:href="#aXqqWGuZ9" opacity="1" fill-opacity="0" stroke="#0a7aa3" stroke-width="1" stroke-opacity="1"></use></g></g><g><use xlink:href="#a1QplhPSI" opacity="1" fill="#ffffff" fill-opacity="0.99"></use><g><use xlink:href="#a1QplhPSI" opacity="1" fill-opacity="0" stroke="#0a7aa3" stroke-width="1" stroke-opacity="1"></use></g></g><g><use xlink:href="#a3gBrEp8i" opacity="1" fill="#ffffff" fill-opacity="0.99"></use></g><g><use xlink:href="#b7g4jX8l7" opacity="1" fill="#087fa9" fill-opacity="0.99"></use></g><g><g><use xlink:href="#d1JTsWx3wV" opacity="1" fill="#bababa" fill-opacity="0.99"></use></g><g><use xlink:href="#aSVtGqwVr" opacity="1" fill="#bababa" fill-opacity="0.99"></use></g><g><use xlink:href="#b1pSxFe6Z" opacity="1" fill="#bababa" fill-opacity="0.99"></use></g><g><use xlink:href="#h1hJ9Wxtm" opacity="1" fill="#bababa" fill-opacity="0.99"></use></g><g><use xlink:href="#ac8ekZHFe" opacity="1" fill="#bababa" fill-opacity="0.99"></use></g><g><use xlink:href="#b4hjqO916m" opacity="1" fill="#bababa" fill-opacity="0.99"></use></g><g><use xlink:href="#b3slvaJAZB" opacity="1" fill="#bababa" fill-opacity="0.99"></use></g><g><use xlink:href="#a1QfaGzvuy" opacity="1" fill="#bababa" fill-opacity="0.99"></use></g><g><use xlink:href="#d7SB7Pk3p" opacity="1" fill="#bababa" fill-opacity="0.99"></use></g><g><use xlink:href="#j1N9bFAI1o" opacity="1" fill="#bababa" fill-opacity="0.99"></use></g><g><use xlink:href="#beq9j3RMA" opacity="1" fill="#bababa" fill-opacity="0.99"></use></g><g><use xlink:href="#c6Eup3wECs" opacity="1" fill="#bababa" fill-opacity="0.99"></use></g></g><g><g><use xlink:href="#b8JWbqgdJ" opacity="1" fill="#bababa" fill-opacity="0.99"></use></g><g><use xlink:href="#a1Dy06Lzsw" opacity="1" fill="#bababa" fill-opacity="0.99"></use></g><g><use xlink:href="#c3EfrjFutQ" opacity="1" fill="#bababa" fill-opacity="0.99"></use></g><g><use xlink:href="#b1Nenu8Exj" opacity="1" fill="#bababa" fill-opacity="0.99"></use></g><g><use xlink:href="#ewxN4S18R" opacity="1" fill="#bababa" fill-opacity="0.99"></use></g><g><use xlink:href="#dqtZZoCOE" opacity="1" fill="#bababa" fill-opacity="0.99"></use></g><g><use xlink:href="#a4rFK2qzFP" opacity="1" fill="#bababa" fill-opacity="0.99"></use></g><g><use xlink:href="#b2nRAh52iq" opacity="1" fill="#bababa" fill-opacity="0.99"></use></g><g><use xlink:href="#bpEAXcP5" opacity="1" fill="#bababa" fill-opacity="0.99"></use></g><g><use xlink:href="#bT5sbUsG" opacity="1" fill="#bababa" fill-opacity="0.99"></use></g><g><use xlink:href="#b1gp4RxBQd" opacity="1" fill="#bababa" fill-opacity="0.99"></use></g><g><use xlink:href="#c2Y7xNWwD0" opacity="1" fill="#bababa" fill-opacity="0.99"></use></g></g><g><use xlink:href="#a1ezyfRezk" opacity="1" fill="#bababa" fill-opacity="1"></use><g><use xlink:href="#a1ezyfRezk" opacity="1" fill-opacity="0" stroke="#000000" stroke-width="1" stroke-opacity="0"></use></g></g><g><g><use xlink:href="#h3Bd7cc6y" opacity="1" fill="#ffffff" fill-opacity="1"></use><g><use xlink:href="#h3Bd7cc6y" opacity="1" fill-opacity="0" stroke="#000000" stroke-width="1" stroke-opacity="0"></use></g></g><g><use xlink:href="#cLWMNo9Q3" opacity="1" fill="#ffffff" fill-opacity="1"></use><g><use xlink:href="#cLWMNo9Q3" opacity="1" fill-opacity="0" stroke="#000000" stroke-width="1" stroke-opacity="0"></use></g></g><g><use xlink:href="#a18L2sIYJt" opacity="1" fill="#ffffff" fill-opacity="1"></use><g><use xlink:href="#a18L2sIYJt" opacity="1" fill-opacity="0" stroke="#000000" stroke-width="1" stroke-opacity="0"></use></g></g><g><use xlink:href="#b3PwRmLBc" opacity="1" fill="#ffffff" fill-opacity="1"></use><g><use xlink:href="#b3PwRmLBc" opacity="1" fill-opacity="0" stroke="#000000" stroke-width="1" stroke-opacity="0"></use></g></g><g><use xlink:href="#bff1bPJH" opacity="1" fill="#ef5959" fill-opacity="1"></use><g><use xlink:href="#bff1bPJH" opacity="1" fill-opacity="0" stroke="#000000" stroke-width="1" stroke-opacity="0"></use></g></g><g><use xlink:href="#b3aWHDSJmV" opacity="1" fill="#000000" fill-opacity="0"></use><g><use xlink:href="#b3aWHDSJmV" opacity="1" fill-opacity="0" stroke="#000000" stroke-width="1" stroke-opacity="0"></use></g></g></g><g><use xlink:href="#b1dOQv4Ep0" opacity="1" fill="url(#gradientg11lZWHv4f)"></use><g><use xlink:href="#b1dOQv4Ep0" opacity="1" fill-opacity="0" stroke="#000000" stroke-width="1" stroke-opacity="0"></use></g></g><g><use xlink:href="#a1wW9xn9pn" opacity="1" fill="#000000" fill-opacity="0"></use><g><use xlink:href="#a1wW9xn9pn" opacity="1" fill-opacity="0" stroke="#000000" stroke-width="1" stroke-opacity="0"></use></g></g><g><use xlink:href="#brD8MqU8K" opacity="1" fill="#ef5959" fill-opacity="1"></use><g><use xlink:href="#brD8MqU8K" opacity="1" fill-opacity="0" stroke="#000000" stroke-width="1" stroke-opacity="0"></use></g></g><g><use xlink:href="#a1JZHbq6yn" opacity="1" fill="#000000" fill-opacity="0"></use><g><use xlink:href="#a1JZHbq6yn" opacity="1" fill-opacity="0" stroke="#000000" stroke-width="1" stroke-opacity="0"></use></g></g><g><use xlink:href="#d4iEgI3kHd" opacity="1" fill="url(#gradientd2zqLDwAjW)"></use><g><use xlink:href="#d4iEgI3kHd" opacity="1" fill-opacity="0" stroke="#000000" stroke-width="1" stroke-opacity="0"></use></g></g><g><use xlink:href="#a3bV6ZG2xZ" opacity="1" fill="#000000" fill-opacity="0"></use><g><use xlink:href="#a3bV6ZG2xZ" opacity="1" fill-opacity="0" stroke="#000000" stroke-width="1" stroke-opacity="0"></use></g></g><g><use xlink:href="#a1ZHF7zay" opacity="1" fill="#ef5959" fill-opacity="1"></use><g><use xlink:href="#a1ZHF7zay" opacity="1" fill-opacity="0" stroke="#000000" stroke-width="1" stroke-opacity="0"></use></g></g><g><use xlink:href="#c5bAJyLHlz" opacity="1" fill="#000000" fill-opacity="0"></use><g><use xlink:href="#c5bAJyLHlz" opacity="1" fill-opacity="0" stroke="#000000" stroke-width="1" stroke-opacity="0"></use></g></g><g><use xlink:href="#b2zFWeZzgr" opacity="1" fill="#000000" fill-opacity="0"></use><g><use xlink:href="#b2zFWeZzgr" opacity="1" fill-opacity="0" stroke="#ef5959" stroke-width="10" stroke-opacity="1"></use></g></g></g></g></svg>